<?xml version="1.0" encoding="UTF-8"?>
<svg id="Layer_1" xmlns="http://www.w3.org/2000/svg" version="1.1" xmlns:xlink="http://www.w3.org/1999/xlink" viewBox="0 0 700 155">
  <!-- Generator: Adobe Illustrator 29.4.0, SVG Export Plug-In . SVG Version: 2.1.0 Build 152)  -->
  <defs>
    <style>
      .st0 {
        fill: url(#linear-gradient2);
      }

      .st1 {
        fill: url(#linear-gradient1);
      }

      .st2 {
        fill: url(#linear-gradient4);
      }

      .st3 {
        fill: url(#linear-gradient3);
      }

      .st4 {
        fill: url(#linear-gradient);
      }
    </style>
    <linearGradient id="linear-gradient" x1="108.7" y1="11.26" x2="108.7" y2="206.1" gradientUnits="userSpaceOnUse">
      <stop offset="0" stop-color="#1579ff"/>
      <stop offset=".18" stop-color="#a750d8"/>
      <stop offset=".34" stop-color="#b04fcf"/>
      <stop offset=".57" stop-color="#fe477f"/>
      <stop offset="1" stop-color="#ffa24a"/>
    </linearGradient>
    <linearGradient id="linear-gradient1" x1="35.13" y1="11.26" x2="35.13" y2="206.1" gradientTransform="translate(127.16 54.74) rotate(87.78)" xlink:href="#linear-gradient"/>
    <linearGradient id="linear-gradient2" x1="84.59" y1="11.26" x2="84.59" y2="206.1" xlink:href="#linear-gradient"/>
    <linearGradient id="linear-gradient3" x1="605.87" y1="11.26" x2="605.87" y2="206.1" xlink:href="#linear-gradient"/>
    <linearGradient id="linear-gradient4" x1="646.74" y1="11.26" x2="646.74" y2="206.1" xlink:href="#linear-gradient"/>
  </defs>
  <g>
    <path d="M59.94,71.55c1.02.96,1.88,2.06,2.58,3.25,1.22-3.98,3.81-7.36,7.38-9.6.05-.03.11-.07.16-.1-1.42-.34-2.8-.87-4.08-1.62-.94-.55-1.79-1.14-2.59-1.76-.82-.59-1.63-1.24-2.42-1.98-2.83-2.66-4.41-6.33-5-10.17-.55-3.57-2.43-6.93-5.55-9.26-6.75-5.05-16.51-3.23-20.91,4.25-3.35,5.69-2.24,13.16,2.6,17.65,3.31,3.07,7.58,4.24,11.61,3.7,3.87-.52,7.84-.06,11.21,1.91.94.55,1.79,1.14,2.59,1.76.82.59,1.63,1.24,2.42,1.98Z"/>
    <path d="M78.52,106.38c.1-1.08.28-2.11.51-3.08.19-.99.44-2,.79-3.02.33-1.02.76-1.96,1.3-2.85-1.3.14-2.63.13-3.96-.03-.53-.06-1.04-.15-1.54-.26-2.06-.44-4-1.23-5.73-2.32.14,1.1.17,2.22.06,3.35-.1,1.08-.28,2.11-.51,3.1-.19.98-.44,2-.79,3.02-1.23,3.69-3.9,6.66-7.13,8.82-3.02,1.99-5.28,5.11-6.09,8.92-1.75,8.25,4,16.34,12.63,17.2,6.57.65,12.89-3.48,14.93-9.78,1.39-4.29.67-8.66-1.51-12.1-2.1-3.29-3.35-7.09-2.97-10.97Z"/>
    <circle cx="124.33" cy="64.38" r="14.94" transform="translate(37.81 174.45) rotate(-79.21)"/>
    <path d="M199.53,58.42c-2.35-4.27-4.56-5.41-8.19-5.41h-4.2c-2.99,0-5.13,1.14-7.48,5.41l-23.36,42.76c-.5.92-.28,1.64.93,1.64h9.26c.85,0,1.28-.21,1.64-.93l4.91-9.18h33.47l5.06,9.18c.36.71.71.93,1.64.93h9.04c1.14,0,1.35-.71.85-1.64l-23.57-42.76ZM177.52,84.46l11.18-20.85c.21-.36.43-.5.78-.5h.43c.36,0,.57.14.78.5l11.32,20.85h-24.5Z"/>
    <path d="M281.43,63.76h-6.98c-1.07,0-1.57.57-1.57,1.64v20.56c0,5.98-1.64,7.83-7.83,7.83h-18.3c-6.2,0-7.33-1.85-7.33-7.83v-20.56c0-1.07-.5-1.64-1.57-1.64h-6.98c-1.07,0-1.64.57-1.64,1.64v23.05c0,10.32,4.13,14.37,16.95,14.37h19.87c12.82,0,16.95-4.06,16.95-14.37v-23.05c0-1.07-.5-1.64-1.57-1.64Z"/>
    <path d="M319.96,94.42h-6.91c-4.7,0-5.98-1.85-5.98-5.76v-16.51h12.46c.93,0,1.28-.43,1.28-1.28v-5.83c0-.85-.36-1.28-1.28-1.28h-12.46v-9.39c0-1.07-.57-1.56-1.57-1.56h-7.05c-1,0-1.57.5-1.57,1.56v9.39h-6.76c-.86,0-1.28.43-1.28,1.28v5.83c0,.85.43,1.28,1.28,1.28h6.76v16.51c0,10.1,3.06,14.16,14.46,14.16h8.62c.93,0,1.28-.43,1.28-1.28v-5.83c0-.85-.36-1.28-1.28-1.28Z"/>
    <path d="M363.76,63.76h-20.15c-12.82,0-16.95,4.13-16.95,14.44v10.25c0,10.32,4.13,14.37,16.95,14.37h20.15c12.82,0,16.95-4.06,16.95-14.37v-10.25c0-10.32-4.13-14.44-16.95-14.44ZM370.59,86.66c0,5.98-1.64,7.83-7.83,7.83h-18.16c-6.12,0-7.76-1.85-7.76-7.83v-6.76c0-5.98,1.64-7.76,7.76-7.76h18.16c6.2,0,7.83,1.78,7.83,7.76v6.76Z"/>
    <path d="M442.38,63.76h-36.39c-12.82,0-16.95,4.13-16.95,14.44v23.05c0,1.07.57,1.56,1.64,1.56h6.98c1.07,0,1.57-.5,1.57-1.56v-20.63c0-5.98,1.64-7.82,7.76-7.82h12.11v28.46c0,1.07.5,1.56,1.57,1.56h6.98c1.07,0,1.64-.5,1.64-1.56v-28.46h12.53c6.2,0,7.34,1.85,7.34,7.82v20.63c0,1.07.5,1.56,1.57,1.56h6.98c1.07,0,1.57-.5,1.57-1.56v-23.05c0-10.32-4.06-14.44-16.88-14.44Z"/>
    <path d="M477.99,63.76h-6.98c-1.07,0-1.57.57-1.57,1.64v35.86c0,1.07.5,1.56,1.57,1.56h6.98c1.07,0,1.57-.5,1.57-1.56v-35.86c0-1.07-.5-1.64-1.57-1.64Z"/>
    <path d="M477.99,49.31h-6.98c-1.07,0-1.64.5-1.64,1.56v6.76c0,1.07.57,1.64,1.64,1.64h6.98c1.07,0,1.57-.57,1.57-1.64v-6.76c0-1.07-.5-1.56-1.57-1.56Z"/>
    <path d="M526.78,79.34h-24c-2.92,0-3.92-1.14-3.92-3.06v-1.07c0-2.06,1-3.2,3.92-3.2h32.12c.86,0,1.28-.43,1.28-1.28v-5.69c0-.85-.43-1.28-1.28-1.28h-34.75c-8.4,0-11.18,3.84-11.18,9.75v3.13c0,6.26,3.13,9.6,11.11,9.6h23.93c2.92,0,3.99,1.14,3.99,2.99v1.92c0,2.42-1.07,3.42-3.99,3.42h-33.76c-.85,0-1.28.43-1.28,1.28v5.69c0,.85.43,1.28,1.28,1.28h36.46c8.4,0,11.18-3.7,11.18-9.96v-3.98c0-6.12-3.13-9.54-11.11-9.54Z"/>
    <path d="M581.47,63.76h-20.87c-12.82,0-16.95,4.13-16.95,14.44v10.25c0,10.32,4.13,14.37,16.95,14.37h30.69c.85,0,1.28-.43,1.28-1.28v-5.98c0-.85-.43-1.28-1.28-1.28h-29.7c-6.2,0-7.83-1.85-7.83-6.33v-1.71h35.96c2.78,0,4.06-.99,4.06-4.05v-6.76c0-8.61-2.56-11.67-12.32-11.67ZM583.82,78.7c0,.93-.36,1.21-1.21,1.21h-28.84v-1.92c0-4.55,1.64-6.33,7.83-6.33h17.88c3.28,0,4.34,1.14,4.34,4.05v2.99Z"/>
  </g>
  <g>
    <path class="st4" d="M113.45,94.86c-3.9.32-7.84-.33-11.11-2.45-.91-.6-1.74-1.24-2.49-1.89-.79-.61-1.58-1.31-2.34-2.09-.71-.74-1.32-1.53-1.86-2.38-1.37,3.74-3.94,6.79-7.16,8.81.9.35,1.77.8,2.61,1.36.91.59,1.73,1.22,2.5,1.88.79.63,1.56,1.32,2.32,2.1,2.71,2.8,4.11,6.53,4.5,10.4.37,3.6,2.09,7.04,5.1,9.52,6.49,5.37,16.33,4.04,21.09-3.22,3.62-5.51,2.88-13.04-1.74-17.75-3.16-3.24-7.36-4.6-11.41-4.26Z"/>
    <circle class="st1" cx="35.13" cy="93.46" r="14.94" transform="translate(-59.63 124.95) rotate(-87.78)"/>
    <path class="st0" d="M92.7,84.78c.46-1.33.73-2.67.81-3.99.11-2.07-.24-4.08-.95-5.92-.04-.1-.08-.19-.12-.28-.07-.17-.14-.34-.22-.5-.03-.1-.07-.2-.12-.29-.2-.39-.41-.78-.63-1.15-.21-.34-.4-.68-.56-1.02-.08-.11-.13-.22-.19-.33,0,0-.01-.02-.02-.03-1.54-2.99-2.34-6.32-1.93-9.67.13-1.07.33-2.1.58-3.07.21-.98.49-1.99.85-3.01,1.32-3.67,4.07-6.57,7.38-8.65,3.44-2.18,5.97-5.81,6.54-10.29.85-6.55-3.1-12.99-9.32-15.22-8.16-2.92-16.82,1.94-18.78,10.14-.89,3.79-.19,7.57,1.68,10.67,2.01,3.32,3.15,7.15,2.68,11.01-.13,1.07-.33,2.1-.58,3.07-.21.99-.49,2-.86,3.03-.88,2.44-2.39,4.53-4.3,6.28,0,0,0,0-.01.01-.13.15-.29.3-.47.43-.06.07-.14.13-.22.2h-.02c-.72.63-1.52,1.19-2.33,1.7-3.05,1.92-5.38,4.99-6.29,8.78-.65,2.76-.46,5.51.41,8h0s0,.02,0,.02c.03.07.07.15.09.22.03.09.06.16.11.25.04.1.09.19.13.29.06.14.13.28.19.42.41.91.89,1.78,1.47,2.58v.02c.11.14.2.27.31.39.08.1.16.2.24.28,2.23,2.68,5.45,4.56,9.26,5.04,1.93.23,3.85.06,5.66-.49.5-.12,1-.3,1.47-.49h.02c3.65-1.56,6.65-4.55,8.02-8.43Z"/>
    <path class="st3" d="M609.75,53.01h-7.69c-1.07,0-1.64.5-1.64,1.57v46.67c0,1.07.57,1.56,1.64,1.56h7.69c1.07,0,1.57-.5,1.57-1.56v-46.67c0-1.07-.5-1.57-1.57-1.57Z"/>
    <path class="st2" d="M674.55,53.01h-55.62c-1.07,0-1.64.5-1.64,1.57v6.97c0,1.07.57,1.64,1.64,1.64h22.36v38.07c0,1.07.5,1.56,1.57,1.56h7.76c1.07,0,1.57-.5,1.57-1.56v-38.07h22.36c1.07,0,1.64-.57,1.64-1.64v-6.97c0-1.07-.57-1.57-1.64-1.57Z"/>
  </g>
</svg>